<?xml version="1.0" encoding="utf-8"?>
<!-- Generator: Adobe Illustrator 15.0.0, SVG Export Plug-In . SVG Version: 6.00 Build 0)  -->
<!DOCTYPE svg PUBLIC "-//W3C//DTD SVG 1.1//EN" "http://www.w3.org/Graphics/SVG/1.1/DTD/svg11.dtd">
<svg version="1.1" id="Layer_1" xmlns="http://www.w3.org/2000/svg" xmlns:xlink="http://www.w3.org/1999/xlink" x="0px" y="0px"
	 width="207.172px" height="70px" viewBox="0 0 207.172 70" enable-background="new 0 0 207.172 70" xml:space="preserve">
<linearGradient id="SVGID_1_" gradientUnits="userSpaceOnUse" x1="4.3564" y1="99.5098" x2="-42.3569" y2="18.5998" gradientTransform="matrix(1 0 0 -1 54 94.0547)">
	<stop  offset="0" style="stop-color:#3C9EDF"/>
	<stop  offset="1" style="stop-color:#2C7CD3"/>
</linearGradient>
<path fill="url(#SVGID_1_)" d="M3,0h64c1.656,0,3,1.343,3,3v64c0,1.657-1.344,3-3,3H3c-1.657,0-3-1.343-3-3V3C0,1.343,1.343,0,3,0z"
	/>
<g>
	<path fill="#FFFFFF" d="M24.388,37.229l3.594,0.937c0.057,0.737,0.085,1.376,0.085,1.914c0,2.821-1.021,5.075-3.063,6.763
		c-2.042,1.688-4.778,2.53-8.209,2.53c-8.605,0-12.908-4.841-12.908-14.525c0-4.593,1.255-8.318,3.764-11.175
		c2.51-2.856,5.777-4.285,9.804-4.285c6.28,0,9.42,3.02,9.42,9.06l-3.615,1.659c0.042-0.851,0.064-1.51,0.064-1.978
		c0-4.281-1.715-6.422-5.146-6.422c-3.63,0-5.444,4.543-5.444,13.632c0,7.813,2.027,11.719,6.082,11.719
		c1.673,0,3.065-0.666,4.179-2c1.113-1.332,1.669-2.998,1.669-4.996C24.664,39.42,24.572,38.477,24.388,37.229z"/>
	<path fill="#FFFFFF" d="M52.182,19.854l-8.421,29.028h-7.549l-7.698-29.028h8.506l5.742,21.99l6.274-21.99H52.182z"/>
	<path fill="#FFFFFF" d="M62.836,19.854v29.028h-8.421V19.854H62.836z"/>
</g>
<g>
	<path fill="#FFFFFF" d="M80.786,29.71L81.901,30c0.018,0.229,0.026,0.427,0.026,0.594c0,0.876-0.316,1.576-0.95,2.099
		c-0.634,0.524-1.483,0.786-2.548,0.786c-2.671,0-4.006-1.502-4.006-4.508c0-1.426,0.389-2.582,1.168-3.469
		c0.779-0.887,1.793-1.33,3.043-1.33c1.95,0,2.924,0.938,2.924,2.812l-1.122,0.515c0.013-0.264,0.02-0.469,0.02-0.614
		c0-1.329-0.532-1.994-1.598-1.994c-1.126,0-1.689,1.411-1.689,4.231c0,2.425,0.629,3.637,1.888,3.637
		c0.519,0,0.952-0.207,1.297-0.621c0.346-0.414,0.519-0.931,0.519-1.551C80.872,30.39,80.843,30.097,80.786,29.71z"/>
	<path fill="#FFFFFF" d="M86.601,24.159c2.623,0,3.934,1.553,3.934,4.66s-1.335,4.66-4.007,4.66c-2.671,0-4.006-1.588-4.006-4.766
		C82.521,25.677,83.881,24.159,86.601,24.159z M86.528,24.878c-0.493,0-0.826,0.272-1,0.815c-0.173,0.544-0.26,1.585-0.26,3.125
		s0.087,2.582,0.26,3.125c0.174,0.543,0.507,0.815,1,0.815c0.493,0,0.826-0.272,1-0.815c0.174-0.543,0.26-1.585,0.26-3.125
		c0-1.536-0.086-2.576-0.26-3.123C87.354,25.151,87.021,24.878,86.528,24.878z"/>
	<path fill="#FFFFFF" d="M98.278,24.317v9.01h-2l-3.762-5.703v5.703h-0.878v-9.01h1.656l4.106,6.158v-6.158H98.278z"/>
	<path fill="#FFFFFF" d="M106.105,24.317v0.904h-2.21v8.106h-2.772v-8.106h-2.225v-0.904H106.105z"/>
	<path fill="#FFFFFF" d="M106.787,33.327v-9.01h3.875c1.007,0,1.813,0.212,2.415,0.636c0.603,0.425,0.903,0.994,0.903,1.707
		c0,1.092-0.646,1.802-1.939,2.132c0.665,0.247,1.096,0.517,1.291,0.812s0.329,0.868,0.398,1.717
		c0.084,1.012,0.254,1.681,0.509,2.006H111.4c-0.18-0.418-0.271-0.939-0.271-1.564l-0.013-0.535l-0.015-0.674
		c0-1.038-0.418-1.558-1.254-1.558H109.4v4.33L106.787,33.327L106.787,33.327z M109.4,28.251h0.527c0.99,0,1.485-0.517,1.485-1.551
		c0-1.034-0.495-1.551-1.485-1.551H109.4V28.251z"/>
	<path fill="#FFFFFF" d="M119.01,24.159c2.624,0,3.936,1.553,3.936,4.66s-1.336,4.66-4.008,4.66c-2.67,0-4.006-1.588-4.006-4.766
		C114.932,25.677,116.292,24.159,119.01,24.159z M118.938,24.878c-0.492,0-0.826,0.272-0.998,0.815
		c-0.176,0.544-0.263,1.585-0.263,3.125s0.087,2.582,0.263,3.125c0.172,0.543,0.506,0.815,0.998,0.815c0.494,0,0.828-0.272,1-0.815
		c0.174-0.543,0.262-1.585,0.262-3.125c0-1.536-0.088-2.576-0.262-3.123C119.766,25.151,119.432,24.878,118.938,24.878z"/>
	<path fill="#FFFFFF" d="M126.713,24.317v8.105h3.704v0.904H124.1v-9.01L126.713,24.317L126.713,24.317z"/>
	<path fill="#FFFFFF" d="M135.025,33.327v-9.01h3.735c2.653,0,3.979,1.505,3.979,4.515c0,2.997-1.375,4.495-4.125,4.495H135.025z
		 M137.639,32.582h0.687c0.63,0,1.063-0.272,1.307-0.815s0.363-1.526,0.363-2.947c0-1.421-0.12-2.403-0.358-2.944
		c-0.24-0.541-0.677-0.812-1.312-0.812h-0.687V32.582L137.639,32.582z"/>
	<path fill="#FFFFFF" d="M149.73,24.317v0.904h-3.228v2.727h2.712v0.904h-2.712v3.571h3.774v0.904h-6.389v-9.01H149.73z"/>
	<path fill="#FFFFFF" d="M161.646,24.317l-2.614,9.01h-2.345l-2.389-9.01h2.641l1.781,6.825l1.947-6.825H161.646z"/>
	<path fill="#FFFFFF" d="M168.168,24.317v0.904h-3.229v2.727h2.713v0.904h-2.713v3.571h3.774v0.904h-6.39v-9.01H168.168z"/>
	<path fill="#FFFFFF" d="M176.122,24.317v9.01h-2l-3.763-5.703v5.703h-0.879v-9.01h1.656l4.105,6.158v-6.158H176.122z"/>
	<path fill="#FFFFFF" d="M183.95,24.317v0.904h-2.212v8.106h-2.772v-8.106h-2.225v-0.904H183.95z"/>
	<path fill="#FFFFFF" d="M188.723,24.317l2.508,9.01h-2.627l-0.535-1.954h-2.713l-0.573,1.954h-1.023l2.667-9.01H188.723z
		 M185.613,30.469h2.212l-1.063-3.994L185.613,30.469z"/>
	<path fill="#FFFFFF" d="M197.825,26.838l-1.216,0.225c0.054-0.242,0.08-0.444,0.08-0.607c0-1.047-0.637-1.571-1.907-1.571
		c-1.003,0-1.505,0.361-1.505,1.083c0,0.541,0.562,1.005,1.684,1.393c2.165,0.744,3.247,1.844,3.247,3.301
		c0,0.854-0.304,1.539-0.91,2.056c-0.606,0.517-1.415,0.775-2.423,0.775c-2.23,0-3.348-0.865-3.348-2.594
		c0-0.141,0.012-0.315,0.033-0.522l1.262-0.277c-0.098,0.383-0.146,0.715-0.146,0.997c0,1.118,0.641,1.677,1.922,1.677
		c1.024,0,1.537-0.403,1.537-1.208c0-0.598-0.613-1.124-1.841-1.577c-1.774-0.651-2.661-1.692-2.661-3.123
		c0-0.81,0.297-1.462,0.889-1.957c0.592-0.495,1.369-0.743,2.332-0.743C196.834,24.165,197.825,25.056,197.825,26.838z"/>
	<path fill="#FFFFFF" d="M100.331,40.539v0.904h-3.228v2.727h2.713v0.903h-2.713v3.571h3.776v0.904h-6.39v-9.011L100.331,40.539
		L100.331,40.539z"/>
	<path fill="#FFFFFF" d="M108.371,40.539v9.011h-2.614v-9.011H108.371z"/>
	<path fill="#FFFFFF" d="M116.521,40.539v9.011h-2l-3.763-5.704v5.704h-0.878v-9.011h1.656l4.105,6.159v-6.159H116.521z"/>
	<path fill="#FFFFFF" d="M124.523,40.539l-2.614,9.011h-2.343l-2.391-9.011h2.641l1.781,6.825l1.947-6.825H124.523z"/>
	<path fill="#FFFFFF" d="M131.044,40.539v0.904h-3.229v2.727h2.713v0.903h-2.713v3.571h3.775v0.904h-6.39v-9.011L131.044,40.539
		L131.044,40.539z"/>
	<path fill="#FFFFFF" d="M138.999,40.539v9.011h-2l-3.763-5.704v5.704h-0.879v-9.011h1.656l4.105,6.159v-6.159H138.999z"/>
	<path fill="#FFFFFF" d="M146.827,40.539v0.904h-2.211v8.105h-2.773v-8.105h-2.225v-0.904H146.827z"/>
	<path fill="#FFFFFF" d="M151.6,40.539l2.508,9.011h-2.627l-0.535-1.954h-2.713l-0.573,1.954h-1.023l2.667-9.011H151.6z
		 M148.49,46.691h2.212l-1.063-3.994L148.49,46.691z"/>
	<path fill="#FFFFFF" d="M154.814,49.55v-9.011h3.875c1.008,0,1.813,0.213,2.416,0.638c0.603,0.425,0.902,0.993,0.902,1.706
		c0,1.092-0.646,1.803-1.939,2.133c0.664,0.245,1.096,0.517,1.291,0.813c0.195,0.294,0.328,0.865,0.398,1.715
		c0.083,1.014,0.254,1.682,0.508,2.008h-2.839c-0.18-0.418-0.271-0.939-0.271-1.564l-0.014-0.534l-0.014-0.673
		c0-1.039-0.417-1.56-1.254-1.56h-0.448v4.331L154.814,49.55L154.814,49.55z M157.428,44.475h0.528c0.989,0,1.483-0.518,1.483-1.553
		c0-1.033-0.494-1.551-1.483-1.551h-0.528V44.475z"/>
	<path fill="#FFFFFF" d="M165.975,40.539v9.011h-2.613v-9.011H165.975z"/>
	<path fill="#FFFFFF" d="M171.223,40.381c2.623,0,3.936,1.555,3.936,4.66c0,3.107-1.336,4.66-4.008,4.66
		c-2.67,0-4.006-1.59-4.006-4.766C167.145,41.898,168.504,40.381,171.223,40.381z M171.15,41.102c-0.492,0-0.825,0.271-1,0.814
		c-0.174,0.543-0.26,1.585-0.26,3.125c0,1.541,0.086,2.582,0.26,3.126c0.175,0.543,0.508,0.813,1,0.813c0.494,0,0.826-0.271,1-0.813
		c0.175-0.544,0.262-1.585,0.262-3.126c0-1.536-0.087-2.577-0.262-3.122C171.977,41.373,171.645,41.102,171.15,41.102z"/>
	<path fill="#FFFFFF" d="M182.201,43.063l-1.215,0.224c0.053-0.242,0.078-0.444,0.078-0.606c0-1.048-0.635-1.57-1.906-1.57
		c-1.004,0-1.506,0.359-1.506,1.082c0,0.541,0.562,1.006,1.684,1.393c2.166,0.744,3.248,1.846,3.248,3.301
		c0,0.854-0.305,1.539-0.91,2.057c-0.607,0.518-1.415,0.775-2.424,0.775c-2.23,0-3.348-0.865-3.348-2.595
		c0-0.142,0.012-0.313,0.035-0.521l1.26-0.277c-0.098,0.383-0.146,0.716-0.146,0.996c0,1.119,0.642,1.677,1.921,1.677
		c1.025,0,1.537-0.401,1.537-1.207c0-0.599-0.613-1.124-1.841-1.577c-1.772-0.652-2.66-1.693-2.66-3.122
		c0-0.811,0.296-1.463,0.888-1.958c0.592-0.494,1.369-0.742,2.334-0.742C181.21,40.389,182.201,41.279,182.201,43.063z"/>
</g>
</svg>
